<?xml version="1.0" encoding="UTF-8" standalone="no"?>
<!-- Created with Serif DrawPlus 11, 0, 3, 23 (Feb 25, 14:12:55) (http://www.serif.com) -->
<svg version="1.1" xmlns="http://www.w3.org/2000/svg" xmlns:xlink="http://www.w3.org/1999/xlink" xmlns:inkscape="http://www.inkscape.org/namespaces/inkscape" width="588.476" height="600.593">
	<g id="dp_group001" transform="matrix(1,0,0,1,-81.8933,-27.5587)">
		<g id="dp_group002">
			<path id="dp_path003" fill="#8886ff" fill-rule="evenodd" stroke="none" stroke-width="4.46" stroke-linejoin="round" d="M 128.852,581.641 L 574.405,581.643 L 351.628,358.517 Z "/>
			<path id="dp_path016" fill="#8886ff" fill-rule="evenodd" stroke="none" stroke-width="4.46" stroke-linejoin="round" d="M 128.099,135.396 L 573.653,135.393 L 350.875,358.52 Z "/>
		</g>
		<path id="dp_path074" fill="none" fill-rule="evenodd" stroke="#8f00d1" stroke-width="1.33333" stroke-linejoin="round" d="M 353.601,231.576 C 358.005,231.668 362.461,231.476 366.964,230.975 C 372.7,230.337 387.101,226.78 392.877,224.476"/>
		<path id="dp_path075" fill="none" fill-rule="evenodd" stroke="#8f00d1" stroke-width="1.33333" stroke-linejoin="round" d="M 353.093,168.084 C 358.94,168.176 373.133,167.768 381.477,165.928 C 390.62,164.543 406.14,161.319 414.061,159.055"/>
		<path id="dp_path100" fill="#8f00d1" fill-rule="evenodd" d="M 385.936,164.861 L 379.669,169.609 L 378.349,164.219 Z "/>
		<path id="dp_path091" fill="#8f00d1" fill-rule="evenodd" stroke="#8f00d1" stroke-width="1.68933" stroke-linejoin="round" d="M 352.335,228.347 C 354.155,228.347 355.631,229.823 355.631,231.643 C 355.631,233.463 354.155,234.939 352.335,234.939 C 350.515,234.939 349.039,233.463 349.039,231.643 C 349.039,229.823 350.515,228.347 352.335,228.347 Z "/>
		<path id="dp_path094" fill="#8f00d1" fill-rule="evenodd" d="M 366.333,291.617 L 359.916,295.847 L 358.784,290.355 Z "/>
		<path id="dp_path094" fill="#8f00d1" fill-rule="evenodd" d="M 366.268,291.484 L 360.012,295.949 L 358.677,290.503 Z "/>
		<path id="dp_path092" fill="#8f00d1" fill-rule="evenodd" stroke="#8f00d1" stroke-width="1.68933" stroke-linejoin="round" d="M 352.349,289.483 C 354.169,289.483 355.645,290.959 355.645,292.779 C 355.645,294.599 354.169,296.075 352.349,296.075 C 350.529,296.075 349.053,294.599 349.053,292.779 C 349.053,290.959 350.529,289.483 352.349,289.483 Z "/>
		<path id="dp_path093" fill="none" fill-rule="evenodd" stroke="#8f00d1" stroke-width="1.33333" stroke-linejoin="round" d="M 353.244,293.093 C 355.868,293.167 359.187,293.021 361.859,292.497 C 364.409,291.996 366.953,291.133 369.457,290.004"/>
		<g id="dp_group003">
			<path id="dp_path029" fill="none" fill-rule="evenodd" stroke="#8f00d1" stroke-width="0.845333" stroke-linejoin="round" d="M 200.589,137.172 C 327,221.388 376.705,220.581 502.963,136.519"/>
			<path id="dp_path030" fill="none" fill-rule="evenodd" stroke="#8f00d1" stroke-width="0.845333" stroke-linejoin="round" d="M 168.157,136.553 C 220.079,178.207 290.413,235.607 352.932,231.901 C 382.001,230.179 407.948,221.115 433.176,208.015 C 470.288,188.745 502.263,162.083 534.601,136.169"/>
			<path id="dp_path032" fill="none" fill-rule="evenodd" stroke="#8f00d1" stroke-width="0.845333" stroke-linejoin="round" d="M 151.131,136.887 C 200.685,181.305 290.235,263.143 351.575,263.4 C 411.816,263.657 503.22,180 552.472,135.939"/>
			<path id="dp_path033" fill="none" fill-rule="evenodd" stroke="#8f00d1" stroke-width="0.845333" stroke-linejoin="round" d="M 139.553,136.511 C 185.028,178.443 290.213,286.536 343.092,292.935 C 406.861,300.649 517.383,182.561 567.584,135.889"/>
			<path id="dp_path034" fill="none" fill-rule="evenodd" stroke="#8f00d1" stroke-width="0.845333" stroke-linejoin="round" d="M 133.148,136.723 C 173.513,174.953 310.629,325.451 359.564,315.009 C 412.675,303.681 523.729,179.212 570.213,135.833"/>
			<path id="dp_path061" fill="none" fill-rule="evenodd" stroke="#8f00d1" stroke-width="0.845333" stroke-linejoin="round" d="M 286.197,135.804 C 334.571,148.036 370.457,147.984 418.627,135.799"/>
			<path id="dp_path062" fill="none" fill-rule="evenodd" stroke="#8f00d1" stroke-width="0.845333" stroke-linejoin="round" d="M 230.483,135.393 C 327.356,179.139 377.156,179.021 473.267,135.845"/>
		</g>
		<g id="dp_group004">
			<path id="dp_path029" fill="none" fill-rule="evenodd" stroke="#8f00d1" stroke-width="0.845333" stroke-linejoin="round" d="M 574.188,207.352 C 488.509,333.763 489.331,383.468 574.853,509.725"/>
			<path id="dp_path030" fill="none" fill-rule="evenodd" stroke="#8f00d1" stroke-width="0.845333" stroke-linejoin="round" d="M 574.819,174.92 C 532.441,226.841 474.044,297.176 477.813,359.695 C 479.565,388.764 488.788,414.711 502.115,439.939 C 521.72,477.051 548.845,509.025 575.209,541.364"/>
			<path id="dp_path032" fill="none" fill-rule="evenodd" stroke="#8f00d1" stroke-width="0.845333" stroke-linejoin="round" d="M 574.48,157.893 C 529.288,207.448 446.029,296.997 445.767,358.337 C 445.505,418.579 530.616,509.983 575.444,559.235"/>
			<path id="dp_path033" fill="none" fill-rule="evenodd" stroke="#8f00d1" stroke-width="0.845333" stroke-linejoin="round" d="M 574.861,146.316 C 532.201,191.791 422.229,296.976 415.719,349.855 C 407.871,413.624 528.011,524.145 575.495,574.347"/>
			<path id="dp_path034" fill="none" fill-rule="evenodd" stroke="#8f00d1" stroke-width="0.845333" stroke-linejoin="round" d="M 574.647,139.911 C 535.751,180.276 382.637,317.392 393.261,366.327 C 404.787,419.437 531.419,530.492 575.551,576.976"/>
			<path id="dp_path061" fill="none" fill-rule="evenodd" stroke="#8f00d1" stroke-width="0.845333" stroke-linejoin="round" d="M 575.581,292.96 C 563.136,341.333 563.189,377.22 575.587,425.389"/>
			<path id="dp_path062" fill="none" fill-rule="evenodd" stroke="#8f00d1" stroke-width="0.845333" stroke-linejoin="round" d="M 575.999,237.245 C 531.493,334.119 531.612,383.919 575.539,480.029"/>
		</g>
		<path id="dp_path094" fill="#8f00d1" fill-rule="evenodd" d="M 366.227,291.405 L 360.072,296.009 L 358.616,290.593 Z "/>
		<path id="dp_path095" fill="#8f00d1" fill-rule="evenodd" stroke="#8f00d1" stroke-width="1.68933" stroke-linejoin="round" d="M 351.199,165.295 C 353.019,165.295 354.495,166.771 354.495,168.591 C 354.495,170.411 353.019,171.887 351.199,171.887 C 349.379,171.887 347.903,170.411 347.903,168.591 C 347.903,166.771 349.379,165.295 351.199,165.295 Z "/>
		<g id="dp_group005">
			<path id="dp_path029" fill="none" fill-rule="evenodd" stroke="#8f00d1" stroke-width="0.845333" stroke-linejoin="round" d="M 199.589,580.196 C 326,495.14 375.705,495.955 501.963,580.856"/>
			<path id="dp_path030" fill="none" fill-rule="evenodd" stroke="#8f00d1" stroke-width="0.845333" stroke-linejoin="round" d="M 167.157,580.821 C 219.079,538.752 289.413,480.78 351.932,484.521 C 381.001,486.261 406.948,495.416 432.176,508.647 C 469.288,528.109 501.263,555.037 533.601,581.209"/>
			<path id="dp_path032" fill="none" fill-rule="evenodd" stroke="#8f00d1" stroke-width="0.845333" stroke-linejoin="round" d="M 150.131,580.485 C 199.685,535.623 289.235,452.968 350.575,452.708 C 410.816,452.449 502.22,536.941 551.472,581.443"/>
			<path id="dp_path033" fill="none" fill-rule="evenodd" stroke="#8f00d1" stroke-width="0.845333" stroke-linejoin="round" d="M 138.553,580.864 C 184.028,538.515 289.213,429.341 342.092,422.879 C 405.861,415.087 516.383,534.355 566.584,581.493"/>
			<path id="dp_path034" fill="none" fill-rule="evenodd" stroke="#8f00d1" stroke-width="0.845333" stroke-linejoin="round" d="M 132.148,580.652 C 172.513,542.037 309.629,390.037 358.564,400.584 C 411.675,412.025 522.729,537.737 569.213,581.548"/>
			<path id="dp_path061" fill="none" fill-rule="evenodd" stroke="#8f00d1" stroke-width="0.845333" stroke-linejoin="round" d="M 285.197,581.579 C 333.571,569.224 369.457,569.277 417.627,581.584"/>
			<path id="dp_path062" fill="none" fill-rule="evenodd" stroke="#8f00d1" stroke-width="0.845333" stroke-linejoin="round" d="M 229.483,581.993 C 326.356,537.812 376.156,537.929 472.267,581.537"/>
		</g>
		<path id="dp_path096" fill="#8f00d1" fill-rule="evenodd" stroke="#8f00d1" stroke-width="1.68933" stroke-linejoin="round" d="M 392.473,221.433 C 394.293,221.433 395.769,222.909 395.769,224.729 C 395.769,226.549 394.293,228.025 392.473,228.025 C 390.653,228.025 389.177,226.549 389.177,224.729 C 389.177,222.909 390.653,221.433 392.473,221.433 Z "/>
		<path id="dp_path002" fill="none" fill-rule="evenodd" stroke="#8f00d1" stroke-width="0.845333" stroke-linejoin="round" d="M 128.732,135.664 L 575.537,135.664 L 575.537,581.224 L 128.732,581.224 Z "/>
		<path id="dp_path097" fill="#8f00d1" fill-rule="evenodd" d="M 374.704,229.228 L 368.177,233.313 L 367.156,227.816 Z "/>
		<path id="dp_path018" fill="none" fill-rule="evenodd" stroke="red" stroke-width="1.83067" stroke-linejoin="round" d="M 574.859,581.636 L 129.496,136.273"/>
		<g id="dp_group006">
			<path id="dp_path044" fill="#f6ac00" fill-rule="evenodd" stroke="#f6ac00" stroke-width="1.50533" stroke-linejoin="round" d="M 81.8933,358.656 L 620.879,358.656"/>
			<path id="dp_path045" fill="#f6ac00" fill-rule="evenodd" d="M 637.465,358.657 L 619.767,352.272 L 619.767,365.041 Z "/>
			<path id="dp_path047" fill="#f6ac00" fill-rule="evenodd" d="M 352.333,71.8 L 345.949,89.4987 L 358.717,89.4987 Z "/>
			<path id="dp_path090" fill="#f6ac00" fill-rule="evenodd" stroke="#f6ac00" stroke-width="1.50533" stroke-linejoin="round" d="M 350.776,628.149 L 351.999,89.164"/>
		</g>
		<path id="dp_path098" fill="#8f00d1" fill-rule="evenodd" stroke="#8f00d1" stroke-width="1.68933" stroke-linejoin="round" d="M 372.755,286.708 C 374.575,286.708 376.051,288.184 376.051,290.004 C 376.051,291.824 374.575,293.3 372.755,293.3 C 370.935,293.3 369.459,291.824 369.459,290.004 C 369.459,288.184 370.935,286.708 372.755,286.708 Z "/>
		<g id="dp_group007">
			<path id="dp_path054" fill="#1e02ab" fill-rule="evenodd" d="M 622.831,273.457 L 607.464,284.312 L 604.073,272.001 Z "/>
			<path id="dp_path055" fill="#1e02ab" fill-rule="evenodd" d="M 437.035,86.2413 L 426.18,101.608 L 438.491,105 Z "/>
			<path id="dp_path088" fill="#1e02ab" fill-rule="evenodd" stroke="#1e02ab" stroke-width="1.50533" stroke-linejoin="round" d="M 94.1973,439.156 L 608.576,278.157"/>
			<path id="dp_path089" fill="#1e02ab" fill-rule="evenodd" stroke="#1e02ab" stroke-width="1.50533" stroke-linejoin="round" d="M 270.439,615.705 L 432.336,101.609"/>
		</g>
		<path id="dp_path056" fill="red" fill-rule="evenodd" stroke="red" stroke-width="1.804" stroke-linejoin="round" d="M 111.637,596.905 L 591.715,116.829"/>
		<g id="dp_dp001" transform="matrix(1,7.51993e-016,-7.5288e-016,1,496.916,108.595)">
			<text id="dp_text002" xml:space="preserve" fill="black" font-family="Arial" font-size="22" font-weight="400" font-style="italic" x="0" y="0">v </text>
			<text id="dp_text003" xml:space="preserve" fill="black" font-family="Arial" font-size="22" font-weight="400" font-style="italic" x="17.1227" y="0">&lt;</text>
			<text id="dp_text004" xml:space="preserve" fill="black" font-family="Arial" font-size="22" font-weight="400" font-style="italic" x="29.9707" y="0"> c </text>
		</g>
		<text id="dp_text005" transform="matrix(1,0,0,1,647.009,365.292)" xml:space="preserve" fill="#f38900" font-family="Arial" font-size="30" font-weight="400" font-style="italic" x="0" y="0">x  </text>
		<text id="dp_text006" transform="matrix(1,0,0,1,348.474,57.5587)" xml:space="preserve" fill="#f38900" font-family="Arial" font-size="30" font-weight="400" font-style="italic" x="0" y="0">t  </text>
		<text id="dp_text007" transform="matrix(1,0,0,1,322.526,100.464)" xml:space="preserve" fill="black" font-family="Arial" font-size="30" font-weight="400" x="0" y="0">  </text>
		<path id="dp_path100" fill="#8f00d1" fill-rule="evenodd" d="M 386.339,164.928 L 379.616,169.552 L 378.828,164.137 Z "/>
		<path id="dp_path099" fill="#8f00d1" fill-rule="evenodd" stroke="#8f00d1" stroke-width="1.68933" stroke-linejoin="round" d="M 414.064,155.943 C 415.884,155.943 417.36,157.419 417.36,159.239 C 417.36,161.059 415.884,162.535 414.064,162.535 C 412.244,162.535 410.768,161.059 410.768,159.239 C 410.768,157.419 412.244,155.943 414.064,155.943 Z "/>
		<text id="dp_text008" transform="matrix(1,0,0,1,437.035,70.3137)" xml:space="preserve" fill="#1e02ab" font-family="Arial" font-size="30" font-weight="400" font-style="italic" x="0" y="0">t'</text>
		<text id="dp_text009" transform="matrix(1,0,0,1,437.035,70.3137)" xml:space="preserve" fill="#1e02ab" font-family="Arial" font-size="30" font-weight="400" font-style="italic" x="14.08" y="0"> </text>
		<g id="dp_group014">
			<path id="dp_path077" fill="#8f00d1" fill-rule="evenodd" stroke="#8f00d1" stroke-width="1.68933" stroke-linejoin="round" d="M 480.86,357.209 C 480.86,355.389 479.384,353.913 477.564,353.913 C 475.744,353.913 474.268,355.389 474.268,357.209 C 474.268,359.029 475.744,360.505 477.564,360.505 C 479.384,360.505 480.86,359.029 480.86,357.209 Z "/>
			<path id="dp_path078" fill="none" fill-rule="evenodd" stroke="#8f00d1" stroke-width="1.33333" stroke-linejoin="round" d="M 478.023,356.545 C 477.953,352.143 478.097,347.687 478.471,343.184 C 478.945,337.447 481.596,323.045 483.313,317.271"/>
			<path id="dp_path079" fill="#8f00d1" fill-rule="evenodd" d="M 479.937,333.229 L 475.516,339.575 L 480.952,340.831 Z "/>
			<path id="dp_path081" fill="#8f00d1" fill-rule="evenodd" stroke="#8f00d1" stroke-width="1.68933" stroke-linejoin="round" d="M 396.205,360.525 C 396.205,358.705 394.729,357.229 392.909,357.229 C 391.089,357.229 389.613,358.705 389.613,360.525 C 389.613,362.345 391.089,363.821 392.909,363.821 C 394.729,363.821 396.205,362.345 396.205,360.525 Z "/>
			<path id="dp_path082" fill="none" fill-rule="evenodd" stroke="#8f00d1" stroke-width="1.33333" stroke-linejoin="round" d="M 393.537,357.821 C 393.688,354.689 394.128,350.752 394.913,347.609 C 395.664,344.611 396.797,341.649 398.208,338.755"/>
			<path id="dp_path083" fill="#8f00d1" fill-rule="evenodd" d="M 395.537,346.412 L 390.672,352.963 L 396.055,353.947 Z "/>
			<path id="dp_path085" fill="#8f00d1" fill-rule="evenodd" stroke="#8f00d1" stroke-width="1.68933" stroke-linejoin="round" d="M 545.464,357.544 C 545.464,355.724 543.988,354.248 542.168,354.248 C 540.348,354.248 538.872,355.724 538.872,357.544 C 538.872,359.364 540.348,360.84 542.168,360.84 C 543.988,360.84 545.464,359.364 545.464,357.544 Z "/>
			<path id="dp_path086" fill="none" fill-rule="evenodd" stroke="#8f00d1" stroke-width="1.33333" stroke-linejoin="round" d="M 542.187,356.651 C 542.08,350.804 543.621,335.311 544.803,328.617 C 546.416,319.473 550.067,303.604 552.704,295.683"/>
			<path id="dp_path076" fill="#8f00d1" fill-rule="evenodd" stroke="#8f00d1" stroke-width="1.68933" stroke-linejoin="round" d="M 487.545,316.013 C 487.545,314.193 486.069,312.717 484.249,312.717 C 482.429,312.717 480.953,314.193 480.953,316.013 C 480.953,317.833 482.429,319.309 484.249,319.309 C 486.069,319.309 487.545,317.833 487.545,316.013 Z "/>
			<path id="dp_path084" fill="#8f00d1" fill-rule="evenodd" stroke="#8f00d1" stroke-width="1.68933" stroke-linejoin="round" d="M 556.003,295.681 C 556.003,293.861 554.527,292.385 552.707,292.385 C 550.887,292.385 549.411,293.861 549.411,295.681 C 549.411,297.501 550.887,298.977 552.707,298.977 C 554.527,298.977 556.003,297.501 556.003,295.681 Z "/>
			<path id="dp_path087" fill="#8f00d1" fill-rule="evenodd" d="M 545.829,324.175 L 541.207,330.127 L 546.621,331.817 Z "/>
			<path id="dp_path080" fill="#8f00d1" fill-rule="evenodd" stroke="#8f00d1" stroke-width="1.68933" stroke-linejoin="round" d="M 400.648,342.04 C 400.648,340.22 399.172,338.744 397.352,338.744 C 395.532,338.744 394.056,340.22 394.056,342.04 C 394.056,343.86 395.532,345.336 397.352,345.336 C 399.172,345.336 400.648,343.86 400.648,342.04 Z "/>
		</g>
		<text id="dp_text010" transform="matrix(1,0,0,1,451.039,70.3137)" xml:space="preserve" fill="#1e02ab" font-family="Arial" font-size="30" font-weight="400" x="0" y="0">  </text>
		<text id="dp_text011" transform="matrix(1,0,0,1,633.14,277.069)" xml:space="preserve" fill="#1e02ab" font-family="Arial" font-size="30" font-weight="400" font-style="italic" x="0" y="0">x'  </text>
		<path id="dp_path101" fill="black" fill-rule="evenodd" d="M 566.837,331.559 C 567.075,330.603 567.096,329.713 566.896,328.887 C 566.696,328.061 566.329,327.341 565.792,326.724 C 565.256,326.108 564.599,325.635 563.823,325.307 C 563.047,324.979 562.203,324.795 561.287,324.755 L 563.107,317.532 C 563.147,317.353 563.067,317.264 562.868,317.264 L 562.719,317.264 C 562.52,317.264 562.4,317.353 562.361,317.532 L 560.541,324.755 C 559.605,324.795 558.671,324.979 557.736,325.307 C 556.8,325.635 555.904,326.108 555.049,326.724 C 554.215,327.341 553.493,328.061 552.887,328.887 C 552.28,329.713 551.857,330.603 551.617,331.559 C 551.4,332.493 551.38,333.373 551.559,334.197 C 551.737,335.024 552.096,335.745 552.633,336.363 C 553.189,336.979 553.856,337.451 554.632,337.78 C 555.408,338.108 556.244,338.292 557.139,338.331 L 555.796,343.823 C 555.717,344.021 555.787,344.12 556.004,344.12 L 556.155,344.12 C 556.333,344.12 556.463,344.021 556.541,343.823 L 557.885,338.331 C 558.84,338.292 559.784,338.108 560.72,337.78 C 561.655,337.451 562.551,336.979 563.405,336.363 C 564.24,335.745 564.961,335.024 565.568,334.197 C 566.175,333.373 566.599,332.493 566.837,331.559 Z M 564.808,331.559 C 564.588,332.373 564.275,333.159 563.868,333.916 C 563.459,334.671 562.917,335.337 562.241,335.915 C 561.624,336.432 560.959,336.844 560.243,337.153 C 559.525,337.461 558.799,337.635 558.064,337.676 L 561.137,325.44 C 561.833,325.481 562.465,325.649 563.032,325.947 C 563.6,326.247 564.061,326.664 564.419,327.201 C 564.797,327.779 565.012,328.444 565.061,329.2 C 565.112,329.957 565.025,330.743 564.808,331.559 Z M 560.391,325.44 L 557.317,337.676 C 556.621,337.635 555.984,337.461 555.408,337.153 C 554.832,336.844 554.373,336.432 554.036,335.915 C 553.637,335.337 553.419,334.671 553.379,333.916 C 553.34,333.159 553.429,332.373 553.647,331.559 C 553.847,330.743 554.155,329.957 554.573,329.2 C 554.991,328.444 555.537,327.779 556.213,327.201 C 557.507,326.127 558.899,325.54 560.391,325.44 Z "/>
		<path id="dp_path017" fill="#f6ac00" fill-rule="evenodd" fill-opacity="0.505882" stroke="none" stroke-width="1.33333" d="M 350.98,143.212 L 460.199,143.212 L 460.199,358.077 L 350.98,358.077 Z "/>
		<path id="dp_path018" fill="#1e02ab" fill-rule="evenodd" fill-opacity="0.505882" stroke="none" stroke-width="1.33333" d="M 413.54,159.321 L 460.197,144.516 L 396.873,344.655 L 350.977,359.381 Z "/>
		<path id="dp_path019" fill="none" fill-rule="evenodd" stroke="red" stroke-width="1.33333" d="M 463.252,135.008 C 445.203,219.545 370.229,298.583 352.177,358.332 C 328.431,436.928 326.471,485.083 322.909,581.225"/>
		<g id="dp_group020">
			<path id="dp_path021" fill="none" fill-rule="evenodd" stroke="#1e02ab" stroke-width="1.33333" d="M 461.229,143.772 L 397.181,344.709"/>
			<path id="dp_path022" fill="none" fill-rule="evenodd" stroke="#1e02ab" stroke-width="1.33333" d="M 461.231,143.772 L 414.763,158.099"/>
			<path id="dp_path023" fill="none" fill-rule="evenodd" stroke="#f6ac00" stroke-width="1.33333" d="M 461.221,143.772 L 351.94,144.433"/>
			<path id="dp_path024" fill="none" fill-rule="evenodd" stroke="#f6ac00" stroke-width="1.33333" d="M 461.223,143.772 L 460.9,358.416"/>
			<g id="dp_group025">
				<g id="dp_group026">
					<path id="dp_path027" fill="black" fill-rule="evenodd" d="M 452.373,157.839 L 455.339,159.36 L 461.271,162.405 L 461.467,143.772 L 446.443,154.795 Z "/>
					<path id="dp_path028" fill="black" d="M 353.619,357.577 L 455.34,159.361 L 452.375,157.839 L 350.653,356.055 Z "/>
				</g>
			</g>
		</g>
		<g id="dp_dp012" transform="matrix(1,7.51993e-016,-7.5288e-016,1,594.228,204.348)">
			<text id="dp_text013" xml:space="preserve" fill="black" font-family="Arial" font-size="22" font-weight="400" font-style="italic" x="0" y="0">v </text>
			<text id="dp_text014" xml:space="preserve" fill="black" font-family="Arial" font-size="22" font-weight="400" font-style="italic" x="17.1227" y="0">&gt;</text>
			<text id="dp_text015" xml:space="preserve" fill="black" font-family="Arial" font-size="22" font-weight="400" font-style="italic" x="29.9707" y="0"> c </text>
		</g>
		<text id="dp_text016" transform="matrix(1,7.51993e-016,-7.5288e-016,1,594.228,108.595)" xml:space="preserve" fill="red" font-family="Arial" font-size="22" font-weight="400" font-style="italic" x="0" y="0">v = c </text>
		<path id="dp_path101" fill="black" fill-rule="evenodd" d="M 387.975,149.228 C 388.212,148.272 388.233,147.383 388.033,146.556 C 387.833,145.731 387.467,145.011 386.929,144.393 C 386.393,143.777 385.736,143.304 384.96,142.976 C 384.184,142.648 383.34,142.464 382.424,142.424 L 384.244,135.201 C 384.284,135.023 384.204,134.933 384.005,134.933 L 383.856,134.933 C 383.657,134.933 383.537,135.023 383.499,135.201 L 381.679,142.424 C 380.743,142.464 379.808,142.648 378.873,142.976 C 377.937,143.304 377.041,143.777 376.187,144.393 C 375.352,145.011 374.631,145.731 374.024,146.556 C 373.417,147.383 372.995,148.272 372.755,149.228 C 372.537,150.163 372.517,151.043 372.696,151.867 C 372.875,152.693 373.233,153.415 373.771,154.032 C 374.327,154.648 374.993,155.12 375.769,155.449 C 376.545,155.777 377.381,155.961 378.276,156 L 376.933,161.492 C 376.855,161.691 376.924,161.789 377.141,161.789 L 377.292,161.789 C 377.471,161.789 377.6,161.691 377.679,161.492 L 379.023,156 C 379.977,155.961 380.921,155.777 381.857,155.449 C 382.792,155.12 383.688,154.648 384.543,154.032 C 385.377,153.415 386.099,152.693 386.705,151.867 C 387.312,151.043 387.736,150.163 387.975,149.228 Z M 385.945,149.228 C 385.725,150.043 385.412,150.828 385.005,151.585 C 384.596,152.34 384.055,153.007 383.379,153.584 C 382.761,154.101 382.096,154.513 381.38,154.823 C 380.663,155.131 379.936,155.304 379.201,155.345 L 382.275,143.109 C 382.971,143.151 383.603,143.319 384.169,143.616 C 384.737,143.916 385.199,144.333 385.556,144.871 C 385.935,145.448 386.149,146.113 386.199,146.869 C 386.249,147.627 386.163,148.412 385.945,149.228 Z M 381.528,143.109 L 378.455,155.345 C 377.759,155.304 377.121,155.131 376.545,154.823 C 375.969,154.513 375.511,154.101 375.173,153.584 C 374.775,153.007 374.556,152.34 374.516,151.585 C 374.477,150.828 374.567,150.043 374.784,149.228 C 374.984,148.412 375.292,147.627 375.711,146.869 C 376.128,146.113 376.675,145.448 377.351,144.871 C 378.644,143.796 380.036,143.209 381.528,143.109 Z "/>
		<g id="dp_group031">
			<path id="dp_path029" fill="none" fill-rule="evenodd" stroke="#8f00d1" stroke-width="0.845333" stroke-linejoin="round" d="M 130.083,206.565 C 215.761,332.976 214.94,382.681 129.417,508.939"/>
			<path id="dp_path030" fill="none" fill-rule="evenodd" stroke="#8f00d1" stroke-width="0.845333" stroke-linejoin="round" d="M 129.452,174.133 C 171.829,226.055 230.227,296.389 226.457,358.908 C 224.705,387.977 215.483,413.924 202.156,439.152 C 182.551,476.264 155.425,508.239 129.061,540.577"/>
			<path id="dp_path032" fill="none" fill-rule="evenodd" stroke="#8f00d1" stroke-width="0.845333" stroke-linejoin="round" d="M 129.791,157.107 C 174.983,206.661 258.241,296.211 258.504,357.551 C 258.765,417.792 173.655,509.196 128.827,558.448"/>
			<path id="dp_path033" fill="none" fill-rule="evenodd" stroke="#8f00d1" stroke-width="0.845333" stroke-linejoin="round" d="M 129.409,145.529 C 172.069,191.004 282.041,296.189 288.552,349.068 C 296.4,412.837 176.26,523.359 128.776,573.56"/>
			<path id="dp_path034" fill="none" fill-rule="evenodd" stroke="#8f00d1" stroke-width="0.845333" stroke-linejoin="round" d="M 129.624,139.124 C 168.52,179.489 321.633,316.605 311.009,365.54 C 299.484,418.651 172.852,529.705 128.72,576.189"/>
			<path id="dp_path061" fill="none" fill-rule="evenodd" stroke="#8f00d1" stroke-width="0.845333" stroke-linejoin="round" d="M 128.689,292.173 C 141.135,340.547 141.081,376.433 128.684,424.603"/>
			<path id="dp_path062" fill="none" fill-rule="evenodd" stroke="#8f00d1" stroke-width="0.845333" stroke-linejoin="round" d="M 128.272,236.459 C 172.777,333.332 172.659,383.132 128.732,479.243"/>
		</g>
	</g>
</svg>